<svg xmlns="http://www.w3.org/2000/svg" xmlns:xlink="http://www.w3.org/1999/xlink" width="500" zoomAndPan="magnify" viewBox="0 0 375 374.999991" height="500" preserveAspectRatio="xMidYMid meet" version="1.0"><defs><clipPath id="5ec13c7f73"><path d="M 64 66 L 361 66 L 361 328.726562 L 64 328.726562 Z M 64 66 " clip-rule="nonzero"/></clipPath><clipPath id="3e258513f3"><path d="M 328 45.976562 L 372 45.976562 L 372 90 L 328 90 Z M 328 45.976562 " clip-rule="nonzero"/></clipPath></defs><g clip-path="url(#5ec13c7f73)"><path fill="#000000" d="M 97.949219 66.851562 L 64.003906 110.222656 L 102.398438 72.535156 L 194 74.824219 L 161.726562 111.007812 L 201.210938 75.003906 L 209.261719 75.203125 L 250.109375 122.210938 L 150.21875 125.109375 L 108.222656 79.976562 L 143.699219 125.296875 L 69.273438 127.453125 L 146.761719 132.050781 L 205.605469 329.019531 L 154.164062 132.492188 L 259.8125 138.757812 L 205.605469 329.019531 L 274.832031 139.652344 L 326.136719 142.699219 L 205.605469 329.019531 L 360.691406 127.453125 L 313.257812 66.851562 Z M 216.304688 75.378906 L 297.402344 77.398438 L 269.804688 121.640625 L 266.511719 121.734375 Z M 331.253906 119.855469 L 271.402344 121.59375 L 309.617188 85.207031 L 329.425781 116.929688 Z M 331.253906 119.855469 " fill-opacity="1" fill-rule="evenodd"/></g><path fill="#000000" d="M 47.816406 135.945312 L 49.890625 158.320312 L 51.976562 135.945312 L 74.351562 133.859375 L 51.976562 131.785156 L 49.890625 109.398438 L 47.816406 131.785156 L 25.4375 133.859375 Z M 47.816406 135.945312 " fill-opacity="1" fill-rule="evenodd"/><g clip-path="url(#3e258513f3)"><path fill="#000000" d="M 348.507812 69.453125 L 350.347656 89.246094 L 352.195312 69.453125 L 371.984375 67.613281 L 352.195312 65.773438 L 350.347656 45.976562 L 348.507812 65.773438 L 328.710938 67.613281 Z M 348.507812 69.453125 " fill-opacity="1" fill-rule="evenodd"/></g><path fill="#000000" d="M 41.441406 208.347656 L 73.84375 205.335938 L 41.441406 202.316406 L 38.429688 169.914062 L 35.410156 202.316406 L 3.007812 205.335938 L 35.410156 208.347656 L 38.429688 240.75 Z M 41.441406 208.347656 " fill-opacity="1" fill-rule="evenodd"/><path fill="#000000" d="M 117.023438 256.199219 L 112.785156 210.609375 L 108.542969 256.199219 L 62.957031 260.4375 L 108.542969 264.675781 L 112.785156 310.265625 L 117.023438 264.675781 L 162.609375 260.4375 Z M 117.023438 256.199219 " fill-opacity="1" fill-rule="evenodd"/></svg>