<svg xmlns="http://www.w3.org/2000/svg" xmlns:xlink="http://www.w3.org/1999/xlink" width="250" zoomAndPan="magnify" viewBox="0 0 187.5 44.999999" height="60" preserveAspectRatio="xMidYMid meet" version="1.0"><defs><g/><clipPath id="990f493503"><path d="M 8 7 L 47 7 L 47 40.453125 L 8 40.453125 Z M 8 7 " clip-rule="nonzero"/></clipPath><clipPath id="c69e5f6509"><path d="M 42 4.546875 L 47.871094 4.546875 L 47.871094 11 L 42 11 Z M 42 4.546875 " clip-rule="nonzero"/></clipPath><clipPath id="226cdf412d"><path d="M 0.746094 20 L 10 20 L 10 30 L 0.746094 30 Z M 0.746094 20 " clip-rule="nonzero"/></clipPath></defs><g fill="#000000" fill-opacity="1"><g transform="translate(48.091097, 32.59807)"><g><path d="M 0.796875 -22.609375 L 16.6875 -22.609375 C 17.132812 -22.609375 17.359375 -22.382812 17.359375 -21.9375 L 17.359375 -18.75 C 17.359375 -18.3125 17.132812 -18.09375 16.6875 -18.09375 L 11.234375 -18.09375 L 11.234375 -0.671875 C 11.234375 -0.222656 11.015625 0 10.578125 0 L 6.921875 0 C 6.472656 0 6.25 -0.222656 6.25 -0.671875 L 6.25 -11.796875 C 6.25 -12.816406 6.382812 -13.75 6.65625 -14.59375 C 6.9375 -15.4375 7.328125 -16.160156 7.828125 -16.765625 C 8.328125 -17.367188 8.910156 -17.8125 9.578125 -18.09375 L 0.796875 -18.09375 C 0.359375 -18.09375 0.140625 -18.3125 0.140625 -18.75 L 0.140625 -21.9375 C 0.140625 -22.382812 0.359375 -22.609375 0.796875 -22.609375 Z M 0.796875 -22.609375 "/></g></g></g><g fill="#000000" fill-opacity="1"><g transform="translate(67.270785, 32.59807)"><g><path d="M 12.03125 -14.65625 L 15.6875 -14.65625 C 16.132812 -14.65625 16.359375 -14.4375 16.359375 -14 L 16.359375 0.328125 C 14.410156 0.128906 13.019531 -0.785156 12.1875 -2.421875 C 11.125 -0.453125 9.421875 0.53125 7.078125 0.53125 C 5.242188 0.53125 3.832031 -0.0390625 2.84375 -1.1875 C 1.851562 -2.332031 1.359375 -3.988281 1.359375 -6.15625 L 1.359375 -14 C 1.359375 -14.4375 1.582031 -14.65625 2.03125 -14.65625 L 5.6875 -14.65625 C 6.125 -14.65625 6.34375 -14.4375 6.34375 -14 L 6.34375 -6.15625 C 6.34375 -5.3125 6.53125 -4.648438 6.90625 -4.171875 C 7.289062 -3.691406 7.816406 -3.453125 8.484375 -3.453125 C 9.035156 -3.453125 9.53125 -3.601562 9.96875 -3.90625 C 10.40625 -4.21875 10.75 -4.640625 11 -5.171875 C 11.25 -5.710938 11.375 -6.328125 11.375 -7.015625 L 11.375 -14 C 11.375 -14.4375 11.59375 -14.65625 12.03125 -14.65625 Z M 12.03125 -14.65625 "/></g></g></g><g fill="#000000" fill-opacity="1"><g transform="translate(86.882583, 32.59807)"><g><path d="M 11.03125 -15.1875 C 12.34375 -15.1875 13.398438 -14.90625 14.203125 -14.34375 C 15.015625 -13.789062 15.609375 -13.007812 15.984375 -12 C 16.367188 -11 16.5625 -9.835938 16.5625 -8.515625 L 16.5625 -0.671875 C 16.5625 -0.222656 16.335938 0 15.890625 0 L 12.234375 0 C 11.796875 0 11.578125 -0.222656 11.578125 -0.671875 L 11.578125 -8.515625 C 11.578125 -9.378906 11.398438 -10.039062 11.046875 -10.5 C 10.703125 -10.96875 10.132812 -11.203125 9.34375 -11.203125 C 8.632812 -11.203125 8.019531 -10.941406 7.5 -10.421875 C 6.988281 -9.898438 6.679688 -9.179688 6.578125 -8.265625 L 6.578125 -0.671875 C 6.578125 -0.222656 6.359375 0 5.921875 0 L 2.265625 0 C 1.816406 0 1.59375 -0.222656 1.59375 -0.671875 L 1.59375 -15 C 2.582031 -14.800781 3.425781 -14.457031 4.125 -13.96875 C 4.832031 -13.476562 5.390625 -12.863281 5.796875 -12.125 C 6.554688 -13.238281 7.378906 -14.023438 8.265625 -14.484375 C 9.148438 -14.953125 10.070312 -15.1875 11.03125 -15.1875 Z M 11.03125 -15.1875 "/></g></g></g><g fill="#000000" fill-opacity="1"><g transform="translate(106.494381, 32.59807)"><g><path d="M 9.4375 -15.1875 C 10.5625 -15.1875 11.609375 -15.019531 12.578125 -14.6875 C 13.554688 -14.363281 14.421875 -13.878906 15.171875 -13.234375 C 15.921875 -12.597656 16.503906 -11.8125 16.921875 -10.875 C 17.347656 -9.9375 17.5625 -8.859375 17.5625 -7.640625 L 17.5625 -7.046875 C 17.5625 -6.609375 17.335938 -6.390625 16.890625 -6.390625 L 6.1875 -6.390625 C 6.25 -5.378906 6.554688 -4.566406 7.109375 -3.953125 C 7.671875 -3.335938 8.414062 -3.03125 9.34375 -3.03125 C 10.070312 -3.03125 10.675781 -3.175781 11.15625 -3.46875 C 11.632812 -3.769531 11.972656 -4.144531 12.171875 -4.59375 C 12.253906 -4.78125 12.351562 -4.921875 12.46875 -5.015625 C 12.582031 -5.109375 12.726562 -5.15625 12.90625 -5.15625 L 16.59375 -5.15625 C 16.820312 -5.15625 16.992188 -5.082031 17.109375 -4.9375 C 17.234375 -4.800781 17.25 -4.617188 17.15625 -4.390625 C 16.769531 -3.273438 16.203125 -2.351562 15.453125 -1.625 C 14.703125 -0.90625 13.816406 -0.363281 12.796875 0 C 11.773438 0.351562 10.65625 0.53125 9.4375 0.53125 C 8.175781 0.53125 7.019531 0.351562 5.96875 0 C 4.925781 -0.363281 4.023438 -0.882812 3.265625 -1.5625 C 2.515625 -2.25 1.929688 -3.078125 1.515625 -4.046875 C 1.097656 -5.015625 0.890625 -6.101562 0.890625 -7.3125 C 0.890625 -8.507812 1.101562 -9.59375 1.53125 -10.5625 C 1.957031 -11.53125 2.550781 -12.359375 3.3125 -13.046875 C 4.082031 -13.734375 4.988281 -14.257812 6.03125 -14.625 C 7.070312 -15 8.207031 -15.1875 9.4375 -15.1875 Z M 6.25 -9.078125 L 12.265625 -9.078125 C 12.222656 -9.878906 11.9375 -10.53125 11.40625 -11.03125 C 10.875 -11.539062 10.164062 -11.796875 9.28125 -11.796875 C 8.351562 -11.796875 7.648438 -11.539062 7.171875 -11.03125 C 6.703125 -10.53125 6.394531 -9.878906 6.25 -9.078125 Z M 6.25 -9.078125 "/></g></g></g><g fill="#000000" fill-opacity="1"><g transform="translate(126.671246, 32.59807)"><g><path d="M 13.90625 -12.140625 C 15.257812 -11.796875 16.300781 -11.113281 17.03125 -10.09375 C 17.757812 -9.070312 18.125 -7.671875 18.125 -5.890625 C 18.125 -4.628906 17.84375 -3.535156 17.28125 -2.609375 C 16.726562 -1.679688 15.957031 -0.957031 14.96875 -0.4375 C 13.988281 0.0703125 12.859375 0.328125 11.578125 0.328125 C 10.679688 0.328125 9.898438 0.148438 9.234375 -0.203125 C 8.578125 -0.566406 8.039062 -1.070312 7.625 -1.71875 C 7.207031 -2.363281 6.925781 -3.117188 6.78125 -3.984375 L 9.84375 -3.984375 C 10.96875 -3.984375 11.796875 -4.226562 12.328125 -4.71875 C 12.867188 -5.21875 13.140625 -5.882812 13.140625 -6.71875 C 13.140625 -7.539062 12.882812 -8.195312 12.375 -8.6875 C 11.863281 -9.1875 11.128906 -9.4375 10.171875 -9.4375 L 6.78125 -9.4375 L 6.78125 -6.21875 C 6.78125 -4.351562 6.347656 -2.820312 5.484375 -1.625 C 4.617188 -0.425781 3.390625 0.335938 1.796875 0.671875 L 1.796875 -21.9375 C 1.796875 -22.382812 2.015625 -22.609375 2.453125 -22.609375 L 8.90625 -22.609375 C 11.375 -22.609375 13.269531 -22.085938 14.59375 -21.046875 C 15.925781 -20.015625 16.59375 -18.539062 16.59375 -16.625 C 16.59375 -15.613281 16.347656 -14.703125 15.859375 -13.890625 C 15.378906 -13.085938 14.726562 -12.503906 13.90625 -12.140625 Z M 6.78125 -13.4375 L 8.90625 -13.4375 C 9.875 -13.4375 10.582031 -13.644531 11.03125 -14.0625 C 11.476562 -14.488281 11.703125 -15.097656 11.703125 -15.890625 C 11.703125 -16.679688 11.484375 -17.273438 11.046875 -17.671875 C 10.609375 -18.078125 9.894531 -18.28125 8.90625 -18.28125 L 6.78125 -18.28125 Z M 6.78125 -13.4375 "/></g></g></g><g fill="#000000" fill-opacity="1"><g transform="translate(147.313469, 32.59807)"><g><path d="M 9.3125 0.53125 C 8 0.53125 6.820312 0.34375 5.78125 -0.03125 C 4.75 -0.414062 3.867188 -0.957031 3.140625 -1.65625 C 2.421875 -2.363281 1.875 -3.195312 1.5 -4.15625 C 1.125 -5.125 0.9375 -6.175781 0.9375 -7.3125 C 0.9375 -8.46875 1.125 -9.523438 1.5 -10.484375 C 1.882812 -11.441406 2.4375 -12.269531 3.15625 -12.96875 C 3.882812 -13.675781 4.765625 -14.222656 5.796875 -14.609375 C 6.828125 -14.992188 8 -15.1875 9.3125 -15.1875 C 10.601562 -15.1875 11.765625 -14.992188 12.796875 -14.609375 C 13.828125 -14.222656 14.703125 -13.675781 15.421875 -12.96875 C 16.148438 -12.269531 16.703125 -11.441406 17.078125 -10.484375 C 17.460938 -9.523438 17.65625 -8.46875 17.65625 -7.3125 C 17.65625 -5.769531 17.320312 -4.410156 16.65625 -3.234375 C 15.988281 -2.054688 15.03125 -1.132812 13.78125 -0.46875 C 12.539062 0.195312 11.050781 0.53125 9.3125 0.53125 Z M 9.3125 -3.359375 C 10.039062 -3.359375 10.65625 -3.53125 11.15625 -3.875 C 11.664062 -4.21875 12.050781 -4.6875 12.3125 -5.28125 C 12.570312 -5.875 12.703125 -6.539062 12.703125 -7.28125 C 12.703125 -8.03125 12.570312 -8.707031 12.3125 -9.3125 C 12.050781 -9.925781 11.664062 -10.410156 11.15625 -10.765625 C 10.65625 -11.128906 10.039062 -11.3125 9.3125 -11.3125 C 8.582031 -11.3125 7.960938 -11.128906 7.453125 -10.765625 C 6.941406 -10.398438 6.550781 -9.910156 6.28125 -9.296875 C 6.019531 -8.691406 5.890625 -8.019531 5.890625 -7.28125 C 5.890625 -6.550781 6.019531 -5.890625 6.28125 -5.296875 C 6.539062 -4.703125 6.925781 -4.226562 7.4375 -3.875 C 7.945312 -3.53125 8.570312 -3.359375 9.3125 -3.359375 Z M 9.3125 -3.359375 "/></g></g></g><g fill="#000000" fill-opacity="1"><g transform="translate(167.590055, 32.59807)"><g><path d="M 17.78125 -15 L 12.03125 -7.484375 L 17.421875 -0.796875 C 17.585938 -0.585938 17.640625 -0.398438 17.578125 -0.234375 C 17.515625 -0.078125 17.34375 0 17.0625 0 L 12.640625 0 C 12.296875 0 12.03125 -0.144531 11.84375 -0.4375 L 9.296875 -4.015625 L 9.015625 -3.59375 C 8.347656 -2.582031 7.628906 -1.789062 6.859375 -1.21875 C 6.085938 -0.644531 5.226562 -0.242188 4.28125 -0.015625 C 3.332031 0.210938 2.257812 0.328125 1.0625 0.328125 L 0.140625 0.328125 L 6.078125 -6.953125 L 0.859375 -13.859375 C 0.691406 -14.097656 0.65625 -14.289062 0.75 -14.4375 C 0.84375 -14.582031 1.023438 -14.65625 1.296875 -14.65625 L 5.390625 -14.65625 C 5.554688 -14.65625 5.703125 -14.625 5.828125 -14.5625 C 5.953125 -14.507812 6.070312 -14.398438 6.1875 -14.234375 L 8.859375 -10.28125 L 9.3125 -10.9375 C 9.988281 -11.9375 10.703125 -12.734375 11.453125 -13.328125 C 12.203125 -13.921875 13.039062 -14.347656 13.96875 -14.609375 C 14.90625 -14.867188 15.976562 -15 17.1875 -15 Z M 17.78125 -15 "/></g></g></g><g clip-path="url(#990f493503)"><path fill="#000000" d="M 12.816406 7.195312 L 8.511719 12.699219 L 13.378906 7.917969 L 25 8.207031 L 20.90625 12.796875 L 25.914062 8.230469 L 26.9375 8.253906 L 32.117188 14.21875 L 19.445312 14.585938 L 14.121094 8.859375 L 18.621094 14.609375 L 9.179688 14.882812 L 19.007812 15.464844 L 26.472656 40.453125 L 19.949219 15.523438 L 33.347656 16.316406 L 26.472656 40.453125 L 35.253906 16.429688 L 41.761719 16.816406 L 26.472656 40.453125 L 46.144531 14.882812 L 40.128906 7.195312 Z M 27.832031 8.277344 L 38.117188 8.535156 L 34.617188 14.144531 L 34.199219 14.15625 Z M 42.410156 13.917969 L 34.820312 14.140625 L 39.667969 9.523438 L 42.179688 13.546875 Z M 42.410156 13.917969 " fill-opacity="1" fill-rule="evenodd"/></g><path fill="#000000" d="M 6.457031 15.960938 L 6.71875 18.800781 L 6.984375 15.960938 L 9.824219 15.695312 L 6.984375 15.433594 L 6.71875 12.59375 L 6.457031 15.433594 L 3.617188 15.695312 Z M 6.457031 15.960938 " fill-opacity="1" fill-rule="evenodd"/><g clip-path="url(#c69e5f6509)"><path fill="#000000" d="M 44.601562 7.527344 L 44.832031 10.035156 L 45.066406 7.527344 L 47.578125 7.292969 L 45.066406 7.058594 L 44.832031 4.546875 L 44.601562 7.058594 L 42.089844 7.292969 Z M 44.601562 7.527344 " fill-opacity="1" fill-rule="evenodd"/></g><g clip-path="url(#226cdf412d)"><path fill="#000000" d="M 5.648438 25.144531 L 9.757812 24.761719 L 5.648438 24.378906 L 5.265625 20.269531 L 4.882812 24.378906 L 0.773438 24.761719 L 4.882812 25.144531 L 5.265625 29.253906 Z M 5.648438 25.144531 " fill-opacity="1" fill-rule="evenodd"/></g><path fill="#000000" d="M 15.234375 31.214844 L 14.699219 25.433594 L 14.160156 31.214844 L 8.378906 31.753906 L 14.160156 32.289062 L 14.699219 38.074219 L 15.234375 32.289062 L 21.019531 31.753906 Z M 15.234375 31.214844 " fill-opacity="1" fill-rule="evenodd"/></svg>